<?xml version="1.0" encoding="UTF-8"?>
<svg xmlns="http://www.w3.org/2000/svg" viewBox="0 0 1500 1500">
  <defs>
    <style>
      .cls-1 {
        fill: #1d1d1b;
      }

      .cls-2 {
        fill: #fff;
      }
    </style>
  </defs>
  <rect class="cls-1" width="1500" height="1500"/>
  <g id="Calque_1" data-name="Calque 1">
    <g>
      <g>
        <path class="cls-2" d="M1322.34,859.96c-21.96,29.48-66.21,53.15-100.7,53.28l-312.23,1.2.17-104.26,256.95-.09c13.68-1.58,24.7-5.59,31.14-15.71,6.33-9.96,8.78-22.75,3.75-35.41-4.89-12.3-20.58-22.08-35.1-22.13l-112.93-.4c-38.92-.14-77.03-7.58-107.84-31.15-37.49-28.67-50.14-68.36-51.15-114.6-.86-39.24,9.35-78.34,35.39-108.3,26.17-30.11,68.65-44.25,108.48-45.61l182.97-.24,87.85.61-.07,105.04-119.19.72-111.79,1.18c-24.64,4.12-39.35,22.27-35.98,46.66,4.83,35.06,42.76,33.23,74.63,33.44,74.02.48,150.53-9.96,202.94,51.42,40.54,47.5,39.53,134.92,2.72,184.35Z"/>
        <path class="cls-2" d="M576.12,500.12l-.83,261.11c-.18,56.23-32.65,103.48-80.61,129.76-64.21,35.19-159.32,34.85-228.06,14.65-29.62-8.71-55.25-24.89-76.12-47.46-38.49-41.61-40.26-99.3-40.37-153.11l.25-72.24-.38-195.13,130.21-.64.26,286.59c.02,21.06,4,42.43,16.18,58.71,31.17,41.65,109.61,35.98,133.37.55,10.35-15.43,15.63-34.91,15.66-54.76l.37-290.61,129.11-.28.96,62.84Z"/>
        <path class="cls-2" d="M893.56,810.25l.76,104.23-147.24-.96c-79.13-.52-148.98-66.27-149.34-147.85l-1.44-328.42,128.62-.11v284.27c-.06,20.84,2.39,41.04,12.71,58.35,12.61,21.13,35.61,27.12,58.98,29.94l96.95.54Z"/>
      </g>
      <g>
        <path class="cls-2" d="M219.33,1024.91c0,3.98-.87,7.49-2.61,10.54-1.74,3.05-4.19,5.46-7.35,7.22-3.16,1.76-6.87,2.64-11.11,2.64s-7.95-.88-11.11-2.64c-3.16-1.76-5.61-4.17-7.35-7.22-1.74-3.05-2.61-6.56-2.61-10.54v-63.97h-20.53v65.67c0,7.32,1.72,13.75,5.15,19.28,3.43,5.53,8.28,9.85,14.54,12.94,6.26,3.09,13.56,4.64,21.92,4.64s15.65-1.55,21.89-4.64c6.23-3.09,11.08-7.41,14.54-12.94,3.46-5.53,5.18-11.96,5.18-19.28v-65.67h-20.53v63.97Z"/>
        <polygon class="cls-2" points="271.38 960.93 250.64 960.93 250.64 1061.91 316.24 1061.91 316.24 1044.36 271.38 1044.36 271.38 960.93"/>
        <polygon class="cls-2" points="305.88 978.49 336.65 978.49 336.65 1061.91 357.45 1061.91 357.45 978.49 388.15 978.49 388.15 960.93 305.88 960.93 305.88 978.49"/>
        <path class="cls-2" d="M508.52,960.93l-34.77,100.21-20.4-38.57c.16-.07.32-.13.48-.2,5.6-2.6,9.92-6.31,12.94-11.15,3.03-4.83,4.54-10.59,4.54-17.28s-1.46-12.56-4.37-17.48c-2.91-4.92-7.1-8.74-12.57-11.45-5.47-2.71-12.02-4.07-19.65-4.07h-39.92v100.98h20.74v-35.65h17.5l18.48,35.65h44.6l7.43-22.63h36.88l7.4,22.63h23.04l-35.44-100.98h-26.9ZM415.53,978.15h16.74c3.93,0,7.25.63,9.96,1.9,2.71,1.27,4.77,3.07,6.17,5.42,1.4,2.35,2.1,5.17,2.1,8.47s-.7,6.04-2.1,8.37c-1.4,2.33-3.45,4.11-6.13,5.35-2.69,1.24-6,1.86-9.93,1.86h-16.81v-31.38ZM508.95,1022.81l3.23-9.83c1.94-6.32,3.91-13.07,5.9-20.23,1.22-4.41,2.51-9.13,3.85-14.14,1.37,5.01,2.67,9.72,3.91,14.11,2.01,7.14,4.01,13.89,6,20.26l3.21,9.83h-26.09Z"/>
        <polygon class="cls-2" points="621.7 960.93 600.97 960.93 600.97 1061.91 666.57 1061.91 666.57 1044.36 621.7 1044.36 621.7 960.93"/>
        <rect class="cls-2" x="673.21" y="960.93" width="20.74" height="100.98"/>
        <path class="cls-2" d="M770.4,1010.27c0,2.35.04,5.41.14,9.18.09,3.77.24,7.7.44,11.79.04.77.08,1.52.12,2.27-.74-1.55-1.49-3.08-2.25-4.57-1.72-3.37-3.38-6.46-4.98-9.28-1.6-2.82-3.04-5.25-4.3-7.29l-32.19-51.44h-22.43v100.98h20.94v-46.62c0-2.08-.05-4.85-.14-8.3-.09-3.46-.23-7.4-.41-11.83-.08-1.87-.17-3.8-.27-5.76,1.19,2.25,2.33,4.38,3.42,6.4,2.15,4,4.13,7.6,5.96,10.81,1.83,3.21,3.56,6.12,5.18,8.74l29.21,46.56h22.5v-100.98h-20.94v49.34Z"/>
        <polygon class="cls-2" points="823.06 1019.49 868.87 1019.49 868.87 1002.34 823.06 1002.34 823.06 978.49 872.6 978.49 872.6 960.93 802.32 960.93 802.32 1061.91 872.67 1061.91 872.67 1044.36 823.06 1044.36 823.06 1019.49"/>
        <path class="cls-2" d="M975.82,1013.66c-2.62-2.35-5.83-4.35-9.62-6-3.79-1.65-8.13-3.02-13.01-4.1l-9.42-2.17c-3.57-.81-6.62-1.76-9.15-2.85-2.53-1.08-4.45-2.41-5.76-3.96-1.31-1.56-1.97-3.47-1.97-5.73,0-2.39.7-4.51,2.1-6.34,1.4-1.83,3.39-3.26,5.96-4.3,2.58-1.04,5.58-1.56,9.01-1.56,5.33,0,9.6,1.27,12.81,3.79,3.21,2.53,4.99,6.03,5.35,10.5h19.79c-.18-6.42-1.83-11.98-4.95-16.71-3.12-4.72-7.48-8.37-13.08-10.94-5.6-2.58-12.22-3.86-19.86-3.86s-14.12,1.28-19.86,3.83c-5.74,2.55-10.22,6.11-13.45,10.67-3.23,4.56-4.85,9.92-4.85,16.06,0,7.27,2.43,13.19,7.29,17.76,4.86,4.56,11.96,7.91,21.31,10.03l10.84,2.51c4.02.9,7.34,1.94,9.96,3.12,2.62,1.18,4.58,2.55,5.9,4.13,1.31,1.58,1.97,3.5,1.97,5.76,0,2.58-.79,4.83-2.37,6.78-1.58,1.94-3.77,3.45-6.57,4.51-2.8,1.06-6.1,1.59-9.89,1.59-4.07,0-7.61-.64-10.64-1.93-3.03-1.29-5.41-3.16-7.15-5.62-1.74-2.46-2.68-5.48-2.81-9.05h-20.13c.09,7.23,1.77,13.37,5.05,18.43,3.28,5.06,7.94,8.9,13.99,11.52,6.05,2.62,13.28,3.93,21.69,3.93s15.29-1.25,21.21-3.76c5.92-2.51,10.46-6.08,13.62-10.71,3.16-4.63,4.74-10.11,4.74-16.43,0-3.98-.69-7.53-2.07-10.67-1.38-3.14-3.38-5.88-6-8.23Z"/>
        <polygon class="cls-2" points="1012.49 1019.49 1058.3 1019.49 1058.3 1002.34 1012.49 1002.34 1012.49 978.49 1062.03 978.49 1062.03 960.93 991.75 960.93 991.75 1061.91 1062.1 1061.91 1062.1 1044.36 1012.49 1044.36 1012.49 1019.49"/>
        <path class="cls-2" d="M1129.53,1022.37c5.6-2.6,9.92-6.31,12.94-11.15,3.03-4.83,4.54-10.59,4.54-17.28s-1.46-12.56-4.37-17.48c-2.91-4.92-7.1-8.74-12.57-11.45-5.47-2.71-12.02-4.07-19.65-4.07h-39.92v100.98h20.74v-35.65h17.5l18.48,35.65h22.63l-20.81-39.34c.16-.07.32-.13.48-.2ZM1091.24,978.15h16.74c3.93,0,7.25.63,9.96,1.9,2.71,1.27,4.77,3.07,6.17,5.42,1.4,2.35,2.1,5.17,2.1,8.47s-.7,6.04-2.1,8.37c-1.4,2.33-3.45,4.11-6.13,5.35-2.69,1.24-6,1.86-9.93,1.86h-16.81v-31.38Z"/>
        <rect class="cls-2" x="1155.63" y="960.93" width="20.74" height="100.98"/>
        <polygon class="cls-2" points="1208.09 1019.49 1253.9 1019.49 1253.9 1002.34 1208.09 1002.34 1208.09 978.49 1257.63 978.49 1257.63 960.93 1187.35 960.93 1187.35 1061.91 1257.69 1061.91 1257.69 1044.36 1208.09 1044.36 1208.09 1019.49"/>
        <path class="cls-2" d="M1341.29,1021.89c-1.38-3.14-3.38-5.88-6-8.23-2.62-2.35-5.83-4.35-9.62-6-3.79-1.65-8.13-3.02-13.01-4.1l-9.42-2.17c-3.57-.81-6.62-1.76-9.15-2.85-2.53-1.08-4.45-2.41-5.76-3.96-1.31-1.56-1.97-3.47-1.97-5.73,0-2.39.7-4.51,2.1-6.34,1.4-1.83,3.39-3.26,5.96-4.3,2.58-1.04,5.58-1.56,9.01-1.56,5.33,0,9.6,1.27,12.81,3.79,3.21,2.53,4.99,6.03,5.35,10.5h19.79c-.18-6.42-1.83-11.98-4.95-16.71-3.12-4.72-7.48-8.37-13.08-10.94-5.6-2.58-12.22-3.86-19.86-3.86s-14.12,1.28-19.86,3.83c-5.74,2.55-10.22,6.11-13.45,10.67-3.23,4.56-4.85,9.92-4.85,16.06,0,7.27,2.43,13.19,7.29,17.76,4.86,4.56,11.96,7.91,21.31,10.03l10.84,2.51c4.02.9,7.34,1.94,9.96,3.12,2.62,1.18,4.58,2.55,5.9,4.13,1.31,1.58,1.97,3.5,1.97,5.76,0,2.58-.79,4.83-2.37,6.78-1.58,1.94-3.77,3.45-6.57,4.51-2.8,1.06-6.1,1.59-9.89,1.59-4.07,0-7.61-.64-10.64-1.93-3.03-1.29-5.41-3.16-7.15-5.62-1.74-2.46-2.68-5.48-2.81-9.05h-20.13c.09,7.23,1.77,13.37,5.05,18.43,3.27,5.06,7.94,8.9,13.99,11.52,6.05,2.62,13.28,3.93,21.69,3.93s15.29-1.25,21.21-3.76c5.92-2.51,10.46-6.08,13.62-10.71,3.16-4.63,4.74-10.11,4.74-16.43,0-3.98-.69-7.53-2.07-10.67Z"/>
      </g>
    </g>
  </g>
</svg>