<?xml version="1.0" encoding="UTF-8"?>
<svg xmlns="http://www.w3.org/2000/svg" viewBox="0 0 1500 1500">
  <defs>
    <style>
      .cls-1 {
        fill: #1d1d1b;
      }

      .cls-2 {
        fill: #fff;
      }
    </style>
  </defs>
  <rect class="cls-1" width="1500" height="1500"/>
  <g id="Calque_1" data-name="Calque 1">
    <g>
      <g>
        <path class="cls-2" d="M1322.34,871.77c-21.96,29.48-66.21,53.15-100.7,53.28l-312.23,1.2.17-104.26,256.95-.09c13.68-1.58,24.7-5.59,31.14-15.71,6.33-9.96,8.78-22.75,3.75-35.41-4.89-12.3-20.58-22.08-35.1-22.13l-112.93-.4c-38.92-.14-77.03-7.58-107.84-31.15-37.49-28.67-50.14-68.36-51.15-114.6-.86-39.24,9.35-78.34,35.39-108.3,26.17-30.11,68.65-44.25,108.48-45.61l182.97-.24,87.85.61-.07,105.04-119.19.72-111.79,1.18c-24.64,4.12-39.35,22.27-35.98,46.66,4.83,35.06,42.76,33.23,74.63,33.44,74.02.48,150.53-9.96,202.94,51.42,40.54,47.5,39.53,134.92,2.72,184.35Z"/>
        <path class="cls-2" d="M576.12,511.93l-.83,261.11c-.18,56.23-32.65,103.48-80.61,129.76-64.21,35.19-159.32,34.85-228.06,14.65-29.62-8.71-55.25-24.89-76.12-47.46-38.49-41.61-40.26-99.3-40.37-153.11l.25-72.24-.38-195.13,130.21-.64.26,286.59c.02,21.06,4,42.43,16.18,58.71,31.17,41.65,109.61,35.98,133.37.55,10.35-15.43,15.63-34.91,15.66-54.76l.37-290.61,129.11-.28.96,62.84Z"/>
        <path class="cls-2" d="M893.56,822.06l.76,104.23-147.24-.96c-79.13-.52-148.98-66.27-149.34-147.85l-1.44-328.42,128.62-.11v284.27c-.06,20.84,2.39,41.04,12.71,58.35,12.61,21.13,35.61,27.12,58.98,29.94l96.95.54Z"/>
      </g>
      <g>
        <path class="cls-2" d="M203.61,1021.85c0,3.07-.67,5.79-2.02,8.14-1.34,2.36-3.24,4.22-5.68,5.58-2.44,1.36-5.31,2.04-8.59,2.04s-6.15-.68-8.59-2.04c-2.44-1.36-4.34-3.22-5.68-5.58-1.34-2.36-2.02-5.07-2.02-8.14v-49.44h-15.87v50.75c0,5.66,1.33,10.62,3.98,14.9,2.65,4.28,6.4,7.61,11.23,10,4.84,2.39,10.48,3.59,16.94,3.59s12.1-1.2,16.92-3.59c4.82-2.39,8.56-5.73,11.23-10,2.67-4.28,4.01-9.24,4.01-14.9v-50.75h-15.87v49.44Z"/>
        <polygon class="cls-2" points="243.83 972.41 227.81 972.41 227.81 1050.45 278.51 1050.45 278.51 1036.88 243.83 1036.88 243.83 972.41"/>
        <polygon class="cls-2" points="270.5 985.97 294.28 985.97 294.28 1050.45 310.35 1050.45 310.35 985.97 334.08 985.97 334.08 972.41 270.5 972.41 270.5 985.97"/>
        <path class="cls-2" d="M427.11,972.41l-26.87,77.45-15.77-29.81c.12-.05.25-.1.37-.16,4.33-2.01,7.66-4.88,10-8.62,2.34-3.74,3.51-8.19,3.51-13.36s-1.13-9.71-3.38-13.51c-2.25-3.81-5.49-6.76-9.72-8.85-4.23-2.09-9.29-3.14-15.19-3.14h-30.85v78.04h16.03v-27.55h13.53l14.28,27.55h34.47l5.74-17.49h28.5l5.72,17.49h17.81l-27.39-78.04h-20.79ZM355.24,985.71h12.94c3.04,0,5.6.49,7.7,1.47,2.09.98,3.68,2.38,4.77,4.19,1.08,1.82,1.62,4,1.62,6.55s-.54,4.67-1.62,6.47c-1.08,1.8-2.66,3.18-4.74,4.14-2.08.96-4.63,1.44-7.67,1.44h-12.99v-24.25ZM427.44,1020.23l2.49-7.59c1.5-4.89,3.02-10.1,4.56-15.63.95-3.41,1.94-7.05,2.98-10.93,1.06,3.87,2.06,7.51,3.02,10.91,1.55,5.52,3.1,10.74,4.64,15.66l2.48,7.59h-20.16Z"/>
        <polygon class="cls-2" points="514.58 972.41 498.55 972.41 498.55 1050.45 549.25 1050.45 549.25 1036.88 514.58 1036.88 514.58 972.41"/>
        <rect class="cls-2" x="554.39" y="972.41" width="16.03" height="78.04"/>
        <path class="cls-2" d="M629.5,1010.54c0,1.82.03,4.18.1,7.1.07,2.92.18,5.95.34,9.11.03.6.06,1.17.09,1.75-.57-1.2-1.15-2.38-1.74-3.53-1.33-2.6-2.61-4.99-3.85-7.18-1.24-2.18-2.35-4.06-3.33-5.63l-24.88-39.75h-17.34v78.04h16.18v-36.03c0-1.61-.04-3.74-.1-6.42-.07-2.67-.18-5.72-.31-9.14-.06-1.45-.13-2.94-.21-4.45.92,1.74,1.8,3.39,2.64,4.95,1.66,3.09,3.19,5.88,4.61,8.35,1.41,2.48,2.75,4.73,4.01,6.76l22.57,35.98h17.39v-78.04h-16.18v38.13Z"/>
        <polygon class="cls-2" points="670.2 1017.66 705.61 1017.66 705.61 1004.41 670.2 1004.41 670.2 985.97 708.49 985.97 708.49 972.41 654.17 972.41 654.17 1050.45 708.54 1050.45 708.54 1036.88 670.2 1036.88 670.2 1017.66"/>
        <path class="cls-2" d="M788.26,1013.16c-2.03-1.81-4.5-3.36-7.44-4.64-2.93-1.27-6.29-2.33-10.06-3.17l-7.28-1.68c-2.76-.63-5.12-1.36-7.07-2.2-1.96-.84-3.44-1.86-4.45-3.06-1.01-1.2-1.52-2.68-1.52-4.43,0-1.85.54-3.48,1.62-4.9,1.08-1.41,2.62-2.52,4.61-3.33,1.99-.8,4.31-1.2,6.97-1.2,4.12,0,7.42.98,9.9,2.93,2.48,1.96,3.86,4.66,4.14,8.12h15.29c-.14-4.96-1.41-9.26-3.82-12.91-2.41-3.65-5.78-6.47-10.11-8.46-4.33-1.99-9.45-2.99-15.35-2.99s-10.91.99-15.35,2.96c-4.43,1.97-7.9,4.72-10.4,8.25-2.5,3.53-3.74,7.67-3.74,12.41,0,5.62,1.88,10.2,5.63,13.72,3.75,3.53,9.24,6.11,16.47,7.75l8.38,1.94c3.11.7,5.67,1.5,7.7,2.41,2.02.91,3.54,1.97,4.56,3.19,1.01,1.22,1.52,2.71,1.52,4.45,0,1.99-.61,3.74-1.83,5.24-1.22,1.5-2.92,2.66-5.08,3.48-2.17.82-4.71,1.23-7.65,1.23-3.14,0-5.88-.5-8.22-1.49-2.34-1-4.18-2.44-5.53-4.35-1.34-1.9-2.07-4.23-2.17-6.99h-15.56c.07,5.59,1.37,10.34,3.9,14.25,2.53,3.91,6.14,6.88,10.82,8.9,4.68,2.02,10.27,3.04,16.76,3.04s11.82-.97,16.39-2.91,8.08-4.7,10.53-8.28c2.44-3.58,3.67-7.81,3.67-12.7,0-3.07-.53-5.82-1.6-8.25-1.07-2.43-2.61-4.55-4.63-6.36Z"/>
        <polygon class="cls-2" points="816.6 1017.66 852.01 1017.66 852.01 1004.41 816.6 1004.41 816.6 985.97 854.89 985.97 854.89 972.41 800.57 972.41 800.57 1050.45 854.94 1050.45 854.94 1036.88 816.6 1036.88 816.6 1017.66"/>
        <path class="cls-2" d="M907.06,1019.89c4.33-2.01,7.66-4.88,10-8.62,2.34-3.74,3.51-8.19,3.51-13.36s-1.13-9.71-3.38-13.51c-2.25-3.81-5.49-6.76-9.72-8.85-4.23-2.09-9.29-3.14-15.19-3.14h-30.85v78.04h16.03v-27.55h13.53l14.28,27.55h17.49l-16.08-30.4c.12-.05.25-.1.37-.16ZM877.47,985.71h12.94c3.04,0,5.6.49,7.7,1.47,2.1.98,3.68,2.38,4.77,4.19,1.08,1.82,1.62,4,1.62,6.55s-.54,4.67-1.62,6.47c-1.08,1.8-2.66,3.18-4.74,4.14-2.08.96-4.64,1.44-7.67,1.44h-12.99v-24.25Z"/>
        <rect class="cls-2" x="927.23" y="972.41" width="16.03" height="78.04"/>
        <polygon class="cls-2" points="967.77 1017.66 1003.17 1017.66 1003.17 1004.41 967.77 1004.41 967.77 985.97 1006.05 985.97 1006.05 972.41 951.74 972.41 951.74 1050.45 1006.11 1050.45 1006.11 1036.88 967.77 1036.88 967.77 1017.66"/>
        <path class="cls-2" d="M1066.08,1013.16c-2.03-1.81-4.5-3.36-7.44-4.64-2.93-1.27-6.29-2.33-10.06-3.17l-7.28-1.68c-2.76-.63-5.12-1.36-7.07-2.2-1.96-.84-3.44-1.86-4.45-3.06-1.01-1.2-1.52-2.68-1.52-4.43,0-1.85.54-3.48,1.62-4.9,1.08-1.41,2.62-2.52,4.61-3.33,1.99-.8,4.31-1.2,6.97-1.2,4.12,0,7.42.98,9.9,2.93,2.48,1.96,3.86,4.66,4.14,8.12h15.29c-.14-4.96-1.41-9.26-3.82-12.91-2.41-3.65-5.78-6.47-10.11-8.46-4.33-1.99-9.45-2.99-15.35-2.99s-10.91.99-15.35,2.96c-4.43,1.97-7.9,4.72-10.4,8.25-2.5,3.53-3.74,7.67-3.74,12.41,0,5.62,1.88,10.2,5.63,13.72,3.75,3.53,9.24,6.11,16.47,7.75l8.38,1.94c3.11.7,5.67,1.5,7.7,2.41,2.02.91,3.54,1.97,4.56,3.19,1.01,1.22,1.52,2.71,1.52,4.45,0,1.99-.61,3.74-1.83,5.24-1.22,1.5-2.92,2.66-5.08,3.48-2.17.82-4.71,1.23-7.65,1.23-3.14,0-5.88-.5-8.22-1.49-2.34-1-4.18-2.44-5.53-4.35-1.34-1.9-2.07-4.23-2.17-6.99h-15.56c.07,5.59,1.37,10.34,3.9,14.25,2.53,3.91,6.14,6.88,10.82,8.9,4.68,2.02,10.27,3.04,16.76,3.04s11.82-.97,16.39-2.91,8.08-4.7,10.53-8.28c2.44-3.58,3.67-7.81,3.67-12.7,0-3.07-.53-5.82-1.6-8.25-1.07-2.43-2.61-4.55-4.63-6.36Z"/>
        <path class="cls-2" d="M1118.93,1037.09l14.46-13.15c4.4-3.91,7.95-7.43,10.66-10.55,2.71-3.12,4.7-6.15,5.97-9.06,1.27-2.92,1.91-6.03,1.91-9.35,0-4.75-1.17-8.9-3.51-12.46-2.34-3.56-5.58-6.33-9.72-8.3-4.14-1.97-8.91-2.96-14.32-2.96s-10.52,1.1-14.69,3.3c-4.17,2.2-7.42,5.3-9.74,9.3-2.32,4-3.48,8.7-3.48,14.11h15.03c0-2.9.52-5.38,1.57-7.44,1.05-2.06,2.53-3.65,4.45-4.77,1.92-1.12,4.19-1.68,6.81-1.68,2.48,0,4.64.48,6.49,1.44,1.85.96,3.29,2.32,4.32,4.09,1.03,1.76,1.54,3.85,1.54,6.26s-.48,4.39-1.44,6.26c-.96,1.87-2.3,3.71-4.03,5.53-1.73,1.82-3.76,3.81-6.1,5.97l-28.18,25.14v11.68h55.62v-13.04h-33.62v-.31Z"/>
        <path class="cls-2" d="M1205.44,976.1c-4.7-3.23-10.31-4.84-16.84-4.84s-12.19,1.62-16.86,4.84c-4.68,3.23-8.28,7.85-10.79,13.85-2.51,6.01-3.77,13.18-3.77,21.53s1.26,15.51,3.77,21.5c2.51,5.99,6.11,10.59,10.79,13.8,4.68,3.21,10.3,4.82,16.86,4.82s12.19-1.61,16.86-4.82c4.68-3.21,8.28-7.81,10.79-13.8,2.51-5.99,3.77-13.15,3.77-21.5s-1.26-15.52-3.77-21.53c-2.51-6-6.12-10.62-10.82-13.85ZM1202.45,1026.04c-1.24,4.05-3.04,7.15-5.39,9.3s-5.18,3.22-8.46,3.22-6.15-1.07-8.51-3.22c-2.36-2.15-4.16-5.25-5.4-9.3-1.24-4.05-1.86-8.9-1.86-14.56s.63-10.56,1.89-14.61c1.26-4.05,3.06-7.16,5.39-9.32,2.34-2.16,5.17-3.25,8.48-3.25s6.1,1.07,8.46,3.22,4.15,5.26,5.39,9.32c1.24,4.07,1.86,8.95,1.86,14.64s-.62,10.51-1.86,14.56Z"/>
        <path class="cls-2" d="M1246.9,1037.09l14.46-13.15c4.4-3.91,7.95-7.43,10.66-10.55,2.71-3.12,4.7-6.15,5.97-9.06,1.27-2.92,1.91-6.03,1.91-9.35,0-4.75-1.17-8.9-3.51-12.46-2.34-3.56-5.58-6.33-9.72-8.3-4.14-1.97-8.91-2.96-14.32-2.96s-10.52,1.1-14.69,3.3c-4.17,2.2-7.42,5.3-9.74,9.3-2.32,4-3.48,8.7-3.48,14.11h15.03c0-2.9.52-5.38,1.57-7.44,1.05-2.06,2.53-3.65,4.45-4.77,1.92-1.12,4.19-1.68,6.81-1.68,2.48,0,4.64.48,6.49,1.44,1.85.96,3.29,2.32,4.32,4.09,1.03,1.76,1.54,3.85,1.54,6.26s-.48,4.39-1.44,6.26c-.96,1.87-2.3,3.71-4.03,5.53-1.73,1.82-3.76,3.81-6.1,5.97l-28.18,25.14v11.68h55.62v-13.04h-33.62v-.31Z"/>
        <path class="cls-2" d="M1341.57,1011.4c-2.18-3.86-5.17-6.9-8.96-9.11-3.79-2.22-8.11-3.33-12.96-3.33-2.72,0-5.31.38-7.75,1.15-2.44.77-4.63,1.89-6.55,3.38-1.92,1.48-3.49,3.29-4.71,5.42h-.31c0-4.99.6-9.33,1.81-13.02,1.2-3.68,3-6.54,5.39-8.56,2.39-2.02,5.37-3.04,8.93-3.04,3.28,0,5.98.86,8.09,2.57,2.11,1.71,3.48,4.03,4.11,6.97h15.35c-.49-4.29-1.93-8.14-4.32-11.55-2.39-3.4-5.55-6.09-9.48-8.07-3.93-1.97-8.48-2.96-13.64-2.96s-9.38.97-13.28,2.91c-3.89,1.94-7.19,4.74-9.9,8.41-2.71,3.67-4.76,8.09-6.15,13.28-1.4,5.19-2.1,11.02-2.1,17.52s.76,12.2,2.28,17c1.52,4.8,3.66,8.77,6.42,11.92,2.76,3.14,6.01,5.48,9.77,7.02,3.75,1.54,7.86,2.3,12.33,2.3,5.69,0,10.71-1.14,15.06-3.43s7.74-5.46,10.19-9.51c2.44-4.05,3.67-8.71,3.67-13.98,0-4.99-1.09-9.42-3.27-13.28ZM1327.64,1032.01c-1.2,2.13-2.83,3.82-4.87,5.05-2.04,1.24-4.36,1.86-6.94,1.86s-4.85-.63-6.91-1.89c-2.06-1.26-3.68-2.94-4.84-5.05-1.17-2.11-1.75-4.48-1.75-7.1,0-1.96.34-3.78,1.02-5.47.68-1.69,1.64-3.18,2.88-4.45,1.24-1.27,2.69-2.27,4.35-2.99,1.66-.72,3.45-1.07,5.37-1.07,2.62,0,4.94.61,6.97,1.83,2.02,1.22,3.62,2.89,4.79,5,1.17,2.11,1.75,4.48,1.75,7.1s-.6,5.05-1.81,7.18Z"/>
      </g>
    </g>
  </g>
</svg>